<svg id="Layer_1" data-name="Layer 1" xmlns="http://www.w3.org/2000/svg" viewBox="0 0 100 100"><defs><style>.cls-1{fill:#00008b;}</style></defs><path class="cls-1" d="M50,1A49,49,0,1,0,98.64,50,48.82,48.82,0,0,0,50,1Zm27.76,81.7a2.13,2.13,0,1,0-3.15,2.46,41.62,41.62,0,0,1-6.28,3.71,2.13,2.13,0,1,0-3.77,1.59,42.56,42.56,0,0,1-6.86,1.86,2,2,0,0,0,0-.42,2.13,2.13,0,1,0-4.26,0,2.09,2.09,0,0,0,.23,1C52.48,93,51.25,93,50,93s-2.29-.06-3.42-.15a2.1,2.1,0,0,0,.29-1.06,2.14,2.14,0,1,0-4.27,0,2.12,2.12,0,0,0,.09.57,41.93,41.93,0,0,1-7.28-1.94A2.14,2.14,0,1,0,32,88.75,2.58,2.58,0,0,0,32,89a42.16,42.16,0,0,1-6.26-3.6A2.15,2.15,0,0,0,25,81.28a2.13,2.13,0,0,0-2.12,2,42.94,42.94,0,0,1-5.61-5.59,2.14,2.14,0,1,0-2.15-2.8,43.88,43.88,0,0,1-3.78-6.48l.14,0a2.15,2.15,0,0,0,0-4.3,2.1,2.1,0,0,0-1.61.76,42.44,42.44,0,0,1-2-7.46,2.06,2.06,0,0,0,.79.16,2.15,2.15,0,0,0,0-4.3,2.1,2.1,0,0,0-1.27.44c-.11-1.23-.17-2.47-.17-3.73s.05-2.44.15-3.64a2.09,2.09,0,0,0,1.22.39,2.15,2.15,0,0,0,0-4.3,2.2,2.2,0,0,0-.73.14,43.18,43.18,0,0,1,2-7.39,2.12,2.12,0,0,0,1.68.83,2.15,2.15,0,0,0,0-4.3l-.24,0a43.21,43.21,0,0,1,3.77-6.54,2.13,2.13,0,1,0,2.24-2.92,42.94,42.94,0,0,1,5.11-5.16,2.14,2.14,0,1,0,3-2.35A43.1,43.1,0,0,1,32,11a2.45,2.45,0,0,0,0,.38,2.14,2.14,0,1,0,4.27,0,2.18,2.18,0,0,0-.92-1.77,42.28,42.28,0,0,1,7.21-1.93,1.79,1.79,0,0,0,0,.24,2.13,2.13,0,1,0,4.26,0,2.1,2.1,0,0,0-.14-.76C47.75,7,48.87,7,50,7s2.5.07,3.72.18a2.1,2.1,0,0,0-.17.84,2.14,2.14,0,1,0,4.27,0,2.85,2.85,0,0,0,0-.29,42,42,0,0,1,7.07,2,2.11,2.11,0,0,0-.55,1.42,2.13,2.13,0,0,0,4.25.16,42.58,42.58,0,0,1,6.14,3.67,2.17,2.17,0,0,0-1.1,1.88,2.13,2.13,0,0,0,4.19.55,43.89,43.89,0,0,1,5,5.1,2.14,2.14,0,1,0,2.44,3.24,43.71,43.71,0,0,1,3.49,6.15h0a2.15,2.15,0,0,0,0,4.29,2.11,2.11,0,0,0,1.54-.66,43,43,0,0,1,1.92,7.44A2.15,2.15,0,1,0,91.33,47a2.14,2.14,0,0,0,1.26-.42c.08,1.12.14,2.25.14,3.4s-.06,2.47-.17,3.69a2.14,2.14,0,1,0-1,4,2.33,2.33,0,0,0,.53-.07,43.12,43.12,0,0,1-1.89,7.1,2.14,2.14,0,1,0-1.55,3.62h0a44.17,44.17,0,0,1-3.59,6.23,2.13,2.13,0,1,0-2.44,3.2A43.6,43.6,0,0,1,77.76,82.71Z"/><path class="cls-1" d="M50,41.55A8.45,8.45,0,1,0,58.39,50,8.43,8.43,0,0,0,50,41.55Z"/><polygon class="cls-1" points="52.07 32.94 50.12 8.11 50.11 8.11 48.16 32.94 50.1 41.45 50.1 41.55 50.12 41.5 50.13 41.55 50.13 41.45 52.07 32.94"/><polygon class="cls-1" points="33.04 48.19 8.39 50.16 8.39 50.16 33.04 52.13 41.49 50.17 41.6 50.17 41.55 50.16 41.6 50.15 41.49 50.15 33.04 48.19"/><polygon class="cls-1" points="39.53 36.49 20.72 20.32 20.71 20.32 36.76 39.27 44.12 43.91 44.19 43.98 44.16 43.94 44.21 43.97 44.13 43.89 39.53 36.49"/><polygon class="cls-1" points="36.62 39.85 14.23 29.27 14.23 29.27 34.68 43.28 42.99 45.8 43.08 45.85 43.04 45.81 43.09 45.83 43 45.77 36.62 39.85"/><polygon class="cls-1" points="34.09 43.67 9.8 39.02 9.8 39.02 33.06 47.47 41.73 47.83 41.83 47.86 41.78 47.84 41.83 47.84 41.73 47.81 34.09 43.67"/><polygon class="cls-1" points="43.3 34.37 28.95 14.09 28.94 14.09 39.95 36.4 45.97 42.69 46.02 42.78 46 42.73 46.04 42.77 45.98 42.68 43.3 34.37"/><polygon class="cls-1" points="47.63 32.99 39.73 9.38 39.72 9.38 43.84 33.95 47.78 41.73 47.8 41.83 47.8 41.77 47.83 41.82 47.8 41.72 47.63 32.99"/><polygon class="cls-1" points="67.19 48.2 91.85 50.16 91.85 50.17 67.19 52.14 58.74 50.18 58.64 50.18 58.69 50.17 58.64 50.16 58.74 50.16 67.19 48.2"/><polygon class="cls-1" points="60.7 36.49 79.52 20.33 79.52 20.33 63.47 39.28 56.12 43.92 56.04 43.99 56.07 43.95 56.03 43.97 56.1 43.9 60.7 36.49"/><polygon class="cls-1" points="63.62 39.86 86 29.27 86 29.28 65.55 43.28 57.25 45.8 57.16 45.85 57.2 45.82 57.15 45.83 57.23 45.78 63.62 39.86"/><polygon class="cls-1" points="66.14 43.68 90.44 39.02 90.44 39.03 67.17 47.48 58.51 47.84 58.41 47.87 58.45 47.84 58.4 47.85 58.5 47.82 66.14 43.68"/><polygon class="cls-1" points="56.93 34.38 71.29 14.1 71.29 14.1 60.28 36.4 54.27 42.7 54.22 42.79 54.23 42.74 54.19 42.78 54.25 42.69 56.93 34.38"/><polygon class="cls-1" points="52.61 32.99 60.5 9.39 60.51 9.39 56.4 33.95 52.45 41.73 52.43 41.84 52.43 41.78 52.41 41.83 52.43 41.73 52.61 32.99"/><polygon class="cls-1" points="52.07 67.14 50.12 91.97 50.11 91.97 48.16 67.14 50.1 58.62 50.1 58.52 50.12 58.57 50.13 58.52 50.13 58.62 52.07 67.14"/><polygon class="cls-1" points="39.53 63.59 20.72 79.75 20.71 79.75 36.76 60.8 44.12 56.17 44.19 56.09 44.16 56.14 44.21 56.11 44.13 56.18 39.53 63.59"/><polygon class="cls-1" points="36.62 60.22 14.23 70.81 14.23 70.81 34.68 56.8 42.99 54.28 43.08 54.23 43.04 54.27 43.09 54.25 43 54.3 36.62 60.22"/><polygon class="cls-1" points="34.09 56.4 9.8 61.06 9.8 61.05 33.06 52.6 41.73 52.24 41.83 52.21 41.78 52.24 41.83 52.24 41.73 52.26 34.09 56.4"/><polygon class="cls-1" points="43.3 65.7 28.95 85.98 28.94 85.98 39.95 63.68 45.97 57.38 46.02 57.29 46 57.34 46.04 57.31 45.98 57.4 43.3 65.7"/><polygon class="cls-1" points="47.63 67.09 39.73 90.69 39.72 90.69 43.84 66.13 47.78 58.35 47.8 58.25 47.8 58.3 47.83 58.25 47.8 58.35 47.63 67.09"/><polygon class="cls-1" points="60.7 63.58 79.52 79.75 79.52 79.74 63.47 60.8 56.12 56.16 56.04 56.09 56.07 56.13 56.03 56.1 56.1 56.18 60.7 63.58"/><polygon class="cls-1" points="63.62 60.21 86 70.8 86 70.8 65.55 56.79 57.25 54.27 57.16 54.22 57.2 54.26 57.15 54.24 57.23 54.29 63.62 60.21"/><polygon class="cls-1" points="66.14 56.39 90.44 61.05 90.44 61.05 67.17 52.59 58.51 52.23 58.41 52.21 58.45 52.23 58.4 52.23 58.5 52.26 66.14 56.39"/><polygon class="cls-1" points="56.93 65.7 71.29 85.98 71.29 85.97 60.28 63.67 54.27 57.38 54.22 57.29 54.23 57.34 54.19 57.3 54.25 57.39 56.93 65.7"/><polygon class="cls-1" points="52.61 67.08 60.5 90.68 60.51 90.68 56.4 66.12 52.45 58.34 52.43 58.24 52.43 58.29 52.41 58.25 52.43 58.35 52.61 67.08"/></svg>